<?xml version="1.0" encoding="iso-8859-1"?>
<!-- Uploaded to: SVG Repo, www.svgrepo.com, Generator: SVG Repo Mixer Tools -->
<svg fill="#000000" height="800px" width="800px" version="1.1" id="Layer_1" xmlns="http://www.w3.org/2000/svg" xmlns:xlink="http://www.w3.org/1999/xlink" 
	 viewBox="0 0 512.015 512.015" xml:space="preserve">
<g transform="translate(-1)">
	<g>
		<path d="M470.348,63.274c-20.644,0-37.852,14.644-41.809,34.116l-25.653,8.551h-17.876V71.365
			c0-16.241-13.178-29.419-29.419-29.419H232.264l-5.987-20.16c-4.592-15.566-21.04-24.477-36.629-19.8L64.579,40.16
			c-15.422,4.603-24.268,20.932-19.703,36.482l9.348,29.313c-35.061,0.319-60.5,33.354-51.344,67.338l41.587,148.965
			c6.249,23.246,27.52,39.554,51.801,39.554l267.403,0.128c0.002,0,0.004,0,0.005,0c0.002,0,0.003,0,0.005,0
			c17.679,0,32,14.321,32,32s-14.321,32-32,32h-3.654c-8.784-24.858-32.474-42.667-60.346-42.667
			c-27.872,0-51.562,17.808-60.346,42.667h-71.308c-8.784-24.858-32.474-42.667-60.346-42.667S56.12,401.082,47.336,425.94H22.344
			c-11.782,0-21.333,9.551-21.333,21.333c0,11.782,9.551,21.333,21.333,21.333h24.992c8.784,24.858,32.474,42.667,60.346,42.667
			s51.562-17.808,60.346-42.667h71.308c8.784,24.858,32.474,42.667,60.346,42.667c27.872,0,51.562-17.808,60.346-42.667h3.654
			c41.243,0,74.667-33.423,74.667-74.667c0-32.416-20.652-59.99-49.515-70.314l36.006-180.029l17.205-5.735
			c7.531,6.682,17.438,10.745,28.304,10.745c23.573,0,42.667-19.093,42.667-42.667C513.015,82.367,493.922,63.274,470.348,63.274z
			 M107.682,468.607c-11.791,0-21.333-9.542-21.333-21.333s9.542-21.333,21.333-21.333c11.292,0,20.497,8.757,21.259,19.853
			c-0.034,0.491-0.075,0.98-0.075,1.48s0.041,0.989,0.075,1.48C128.178,459.85,118.973,468.607,107.682,468.607z M299.682,468.607
			c-11.791,0-21.333-9.542-21.333-21.333s9.542-21.333,21.333-21.333s21.333,9.542,21.333,21.333S311.473,468.607,299.682,468.607z
			 M342.344,84.613v21.327h-91.07l-6.334-21.327H342.344z M206.761,105.94H99.002l-9.209-28.866l99.385-30.334L206.761,105.94z
			 M85.617,310.982l-41.59-148.976c-1.815-6.739,3.346-13.4,10.706-13.4h28.683h151.786c0.053,0,0.104,0.006,0.157,0.006h128.32
			c0.043,0,0.084-0.006,0.127-0.006h16.522l-34.132,170.658l-249.916-0.12C91.286,319.146,86.909,315.79,85.617,310.982z"/>
	</g>
</g>
</svg>